/* XPM */
static char *baea0ed38cc84dd68e4cf1dd5964ca912s46PRkwRNZTIWD8[] = {
/* columns rows colors chars-per-pixel */
"32 32 13 1 ",
"  c None",
". c #C45A08",
"X c #F06800",
"o c #D68E09",
"O c #F5A207",
"+ c #CFBC40",
"@ c #F0DC4A",
"# c #DBC4A9",
"$ c #F2CCA0",
"% c #C1C7D9",
"& c #F0DCC5",
"* c #CED5EB",
"= c white",
/* pixels */
"                                ",
"                                ",
"                                ",
"                                ",
"       %%*************          ",
"      %%%=============*         ",
"      %%% =============         ",
"      %%%==============         ",
"      $$%==&######&&&&&         ",
"      $$%==&&&&&&#&&&&##&&#&    ",
"      $X%==XOooOOoOOOO&$$$$$#   ",
"      $O%==XO@@O@@O@@O&    $#   ",
"      $O%==.O@@O+@O@@O&    $#   ",
"      $OX=OXO@@O@@o@@O&    $&   ",
"      $OXXO.O@@O+@O+@O&    $&   ",
"      $OXXOXo@@O@@O@+O#    $&   ",
"      $OXXOXo@@O@@O@@o&    $&   ",
"      $OX.OXO@@O@@o@@o&    $&   ",
"      $OX.OXO@@O@@O@@O&    $#   ",
"      $OXXOXO@+O@+O+@O#$$$$$#   ",
"      $OXXOXO@@O+@O@@O#$$$$$    ",
"      $O.XOXO@@o@@O+@O&         ",
"      $OXXOXO++O@@O@@o&         ",
"      $OXXOXO@@O@@O@@o&         ",
"      $X..XXOOooOOOOOo&         ",
"      $$$$$&&&&&&&####&         ",
"       $$$$$$$$$$$$$$$          ",
"                                ",
"                                ",
"                                ",
"                                ",
"                                "
};
