/* XPM */
static char *b019e49a0dcf4db3a13eaa746083e8b3mc4KzVzbAvM26sEd[] = {
/* columns rows colors chars-per-pixel */
"32 32 8 1 ",
"  c None",
". c black",
"X c gray44",
"o c gray47",
"O c #FF9D00",
"+ c #C2B8B8",
"@ c #E6E1E1",
"# c white",
/* pixels */
"        .............#          ",
"       .############ #          ",
"       .##########....          ",
"      .###########XX..          ",
"      .##########.XX..          ",
"     .###########XXXX..         ",
"     .##########.XXXX..         ",
"     .#.......##XXXXXX.         ",
"     ..X.+XXXX.#XXXXXX.....     ",
"     #.X.+XXXX.#.XXXXX#####..   ",
"    .#XX.+XXXX..#XXXX.#######.  ",
"  ...#XX.+XXXX..#.XXX#####..##. ",
" ..#..XX.+XXXX...#XX.#######.## ",
" .###.XX.+XXXX..X#.X#########...",
" .###XXX.+XXXX..X.#.########.#..",
" ####.............#####....###..",
".##########.################.#+.",
"############################@.+.",
".########.##################@...",
"O##...###.###########....###@+ +",
"O########.##########.#######.+..",
"O#.#...##.###########.....##.++.",
".##....##.###########....###O...",
".##.....#.#########......###.++.",
"+#...oo.#.##########..oo..##.++.",
"+#..o.o.##.........#.o.o..#.++. ",
".#..o...###########..o....#.+.  ",
" ...o................o.......   ",
"   .o.o.            .o.o..      ",
"   ..oo.            ..oo..      ",
"    ....             ....       ",
"    ...              ....       "
};
