/* XPM */
static char *_e13444193f74705824a0c83f5be8bddcadHwnwbrqOWRZeK[] = {
/* columns rows colors chars-per-pixel */
"32 32 5 1 ",
"  c #477F91",
". c #4C8FA6",
"X c #509EBA",
"o c #61B0C1",
"O c #7BBBC8",
/* pixels */
".....XX....       XX......      ",
".....XX....       XX......      ",
"...XX.............XX............",
"...XX.............XX............",
"X..oo......XXoo...OO..........XX",
"X..oo......XXoo...OO..........XX",
".XXXXooOOoo    XXXoo......XXoo  ",
".XXXXooOOoo    XXXoo......XXoo  ",
".....XX........   XX....oo    ..",
".....XX........   XX....oo    ..",
".....XX.............XXoo  ......",
".....XX.............XXoo  ......",
"...oo  XX.............oo........",
"...oo  XX.............oo........",
"ooo  ..  XXXXXXXXX..XX..........",
"ooo  ..  XXXXXXXXX..XX..........",
".    ..XX......   XXoo..........",
".    ..XX......   XXoo..........",
".......oo......     OO........XX",
".......oo......     OO........XX",
"X....ooOO.........  XXooOOXXoo  ",
"X....ooOO.........  XXooOOXXoo  ",
" XXoo...............oo..      ..",
" XXoo...............oo..      ..",
".  XX.............oo............",
".  XX.............oo............",
"...  oo........XXX    ........XX",
"...  oo........XXX    ........XX",
"Xoo....XXooooXX   ........oooo  ",
"Xoo....XXooooXX   ........oooo  ",
".  ooXX......  .....XXooXX..  ..",
".  ooXX......  .....XXooXX..  .."
};
