/* XPM */
static char *_7c273f22cdd4eea8a97cbe30ce47557Zlpxj6PAVVmUplGJ[] = {
/* columns rows colors chars-per-pixel */
"32 32 147 2 ",
"   c None",
".  c #030403",
"X  c #0B0501",
"o  c #080806",
"O  c #09090C",
"+  c #100000",
"@  c #1B0D04",
"#  c #0F110E",
"$  c #161000",
"%  c #141413",
"&  c #1A1B17",
"*  c #2E0600",
"=  c #2C1300",
"-  c #221A07",
";  c #211E1F",
":  c #3F1616",
">  c #3C1B16",
",  c #332700",
"<  c #362C00",
"1  c #332C0E",
"2  c #2D2D2B",
"3  c #2B2D3A",
"4  c #383836",
"5  c #42140E",
"6  c #5A1E0B",
"7  c #411410",
"8  c #641D00",
"9  c #5C2202",
"0  c #423300",
"q  c #652206",
"w  c #642209",
"e  c #682008",
"r  c #46411B",
"t  c #655506",
"y  c #32394C",
"u  c #4F545F",
"i  c #785551",
"p  c #6D6E60",
"a  c #BD5B13",
"s  c #867A14",
"d  c #F57A02",
"f  c #FB7800",
"g  c #F37D09",
"h  c #B9A534",
"j  c #D1BB18",
"k  c #FFA809",
"l  c #FBB701",
"z  c #F6BA03",
"x  c #FAB900",
"c  c #FAB80C",
"v  c #C7B723",
"b  c #F9D703",
"n  c #F6D904",
"m  c #F8DA02",
"M  c #F5D90E",
"N  c #F5D812",
"B  c #F4D71C",
"V  c #DBC72B",
"C  c #E9C22F",
"Z  c #E2C924",
"A  c #EFD92C",
"S  c #F0D721",
"D  c #F2DB2E",
"F  c #F4D733",
"G  c #8B8359",
"H  c #8B8C7C",
"J  c #F1DA44",
"K  c #FAE15F",
"L  c #D5C673",
"P  c #FACD60",
"I  c #FEEA67",
"U  c #FAEB6A",
"Y  c #FFEB78",
"T  c #F9E978",
"R  c #626E9D",
"E  c #657095",
"W  c #62709E",
"Q  c #626EA1",
"!  c #6F79A4",
"~  c #878785",
"^  c #9D9D9B",
"/  c #BFB68A",
"(  c #BDB483",
")  c #A3A393",
"_  c #828CB5",
"`  c #8891B7",
"'  c #8E98BD",
"]  c #8C95BB",
"[  c #A6A6A4",
"{  c #BEBEBD",
"}  c #CBC08F",
"|  c #DACF97",
" . c #DDD394",
".. c #DBD09C",
"X. c #EBD38C",
"o. c #FFDD81",
"O. c #FFD893",
"+. c #FCEA86",
"@. c #FFE38C",
"#. c #F7EF8B",
"$. c #FAEA8C",
"%. c #FFF184",
"&. c #F9E897",
"*. c #FAE79E",
"=. c #FAE89E",
"-. c #FFF093",
";. c #F7F09F",
":. c #C1C3AF",
">. c #C2C2B1",
",. c #EBE0A8",
"<. c #FCE7A3",
"1. c #F7E9A0",
"2. c #F9E8A0",
"3. c #F2E6A9",
"4. c #F6E8A9",
"5. c #F9EAAB",
"6. c #FCEFBC",
"7. c #FEF1B2",
"8. c #FAF2BB",
"9. c #929DC2",
"0. c #BCC3DC",
"q. c #BBC3D6",
"w. c #BAC3E0",
"e. c #C6C6C6",
"r. c #C5CAD7",
"t. c #D7D5D7",
"y. c #DADAD8",
"u. c #FAF2C5",
"i. c #FAF2CA",
"p. c #E6EAD1",
"a. c #FCEED3",
"s. c #F7FADC",
"d. c #F9FADB",
"f. c #FCF9D6",
"g. c #C9D0E1",
"h. c #D7DAE4",
"j. c #D8DBE5",
"k. c #D7DAE8",
"l. c #FFFFE3",
"z. c #FAFBEB",
"x. c #E3E8F4",
"c. c #EFF1F6",
"v. c #F3F3F3",
"b. c #FBFBF7",
"n. c #F6F7FB",
"m. c #F6F8FB",
"M. c #FDFDFD",
/* pixels */
"                    . . . . .                                 M.",
"                M.[ ^ ^ ^ ^ ^ ~                             . . ",
"                v.# z.z.z.z.z.%                           . j.. ",
"                . b.d.d.d.d.d.z.X                       % . j.. ",
"                . d.d.d.. d.d.d..                     . u 0.j.. ",
"                . d.d.. . d.d.d.X                   . . y E j.. ",
"                . d.d.s.d.d.X . .                   . k.g.0.j.. ",
"                . m d d d.. m m t . . . .         . . R ' 0.h.. ",
"                . n x z . x l x x P o.@..         . w.Q ` 0.b.. ",
"        M.        . m m m . . . . . . .         . W Q q.0.0.b.. ",
"      M.          . . . . . .                 . . q.R q.0.0.b.. ",
"M.                . =.=.=.=..                 . 0.Q 0.0.0.0.b.. ",
"                  . s.s.=.=..               . . 0.R 0.0.0.0.b.. ",
"  . M.            . d.d.=.=..               . 0.Q q.0.0.r.b.b.. ",
". ) .         . . . d.d.u.5.. .             . 0.Q 0.0.x.c.b.. . ",
"r 8.H . . # . . p d.d.d.d.u.=..           . 3 _ ! 0.0.b.b.{ .   ",
"K $.8./ :.>.s.d.8.8.d.d.d.d.6.h ;         . 0.Q 0.0.0.b.y.% e.  ",
"s $.G G U I %.;.+.+.7.T d.d.f.m .       . . 9.] 0.0.0.b.. o M.  ",
". F p. .0 , L &.=.&.A n d.d.d.-.V $.  . . 0.R 0.0.0.m.& .       ",
". m d.*.$ #.C c =.J m B d.d.d.u.B T @ + . 0.q.0.0.0.b..         ",
"  X M 2.X X v m m m Y d.d.d.i.u.X w 8 w . . . 0.0.M.. .         ",
"  . m *.=.b n m n m d.d.i.i.u.u.O w i 9 5 Z =.0.n.b..           ",
"  . N <.=.X X X X S f.f.u.u.i.a.w w q 5 : M $.X l.b.o M.        ",
"    & .. .=.=.=.=.=.=.2.u.6.5.q w w 5 > . 4.D I j . M.      M.  ",
"      . . - 3.=.=.=.=.=.=.- q w w 5 7 .   t.1 < 2 M.            ",
"          9 X.=.( } | ,.3.. w w 6 5 .       2 4 M.              ",
"          d O.1.. . . . . X w w 5 .                             ",
"    M.. . l = o         . w w 5 .                       M.      ",
"    . z x l d d       o e 6 5 5 a X . M.                        ",
"  . f x x k g d .       . 5 5 d d d d .     M.                  ",
"  M.o o d d * . . M.      . . d d X . .                         ",
"        . . v.                . .                               "
};
