/* XPM */
static char *d2ff9d8ebfb94933aec3c70a3d668eb1MdUVIedMtD90IOyW[] = {
/* columns rows colors chars-per-pixel */
"32 32 4 1 ",
"  c None",
". c black",
"X c #D26B20",
"o c #EBAA7A",
/* pixels */
"ooooooooooooooooooooooooooooooo ",
"ooooooooooooooooooooooooooooooo ",
"XXXXXXXXXXXXXX..XXXXXXXXXXXXX.. ",
"XXXXXXXXXXXXXX..XXXXXXXXXXXXX.. ",
"XXXXXXXXXXXXXX..XXXXXXXXXXXXX.. ",
"XXXXXXXXXXXXXX..XXXXXXXXXXXXX.. ",
"............................... ",
"XXXXXX..XXXXXXXXXXXXXXX..XXXXX. ",
"XXXXXX..XXXXXXXXXXXXXXX..XXXXXX ",
"XXXXXX..XXXXXXXXXXXXXXX..XXXXXX ",
"XXXXXX..XXXXXXXXXXXXXXX..XXXXXX ",
"XXXXXX..XXXXXXXXXXXXXXX..XXXXXX ",
"XXXXXX..XXXXXXXXXXXXXXX..XXXXXX ",
"............................... ",
"............................... ",
"XXXXXXXXXXXXXX..XXXXXXXXXXXXX.. ",
"XXXXXXXXXXXXXX..XXXXXXXXXXXXX.. ",
"XXXXXXXXXXXXXX..XXXXXXXXXXXXX.. ",
"XXXXXXXXXXXXXX..XXXXXXXXXXXXX.. ",
"XXXXXXXXXXXXXX..XXXXXXXXXXXXX.. ",
"XXXXXXXXXXXXXX..XXXXXXXXXXXXX.. ",
"............................... ",
"XXXXXX..XXXXXXXXXXXXXXX..XXXXX. ",
"XXXXXX..XXXXXXXXXXXXXXX..XXXXXX ",
"XXXXXX..XXXXXXXXXXXXXXX..XXXXXX ",
"XXXXXX..XXXXXXXXXXXXXXX..XXXXXX ",
"XXXXXX..XXXXXXXXXXXXXXX..XXXXXX ",
"XXXXXX..XXXXXXXXXXXXXXX..XXXXXX ",
"............................... ",
"............................... ",
"                                ",
"                                "
};
