/* XPM */
static char *_19a38e393af4daada95987e9e4b74090vx2h5O3OG2AzFF2[] = {
/* columns rows colors chars-per-pixel */
"32 32 10 1 ",
"  c None",
". c gray44",
"X c #727272",
"o c #7C7C7C",
"O c gray51",
"+ c gray55",
"@ c gray59",
"# c #9B9B9B",
"$ c gray67",
"% c #AFAFAF",
/* pixels */
"                                ",
"                                ",
"                                ",
"                                ",
"                                ",
"                                ",
"                                ",
"                                ",
"        #oooooo++%$$X%%#########",
"        ###%%%%%%####%%%%%o#####",
"        ###%%%%%%####%%%%%o#####",
"        #oo###o#####%oo####%%###",
"        #%%####oo#%%###oooOooo##",
"        #%%####oo#%%###oooOooo##",
"        #%%%ooooooooooo%%%%%%%oo",
"        ooo##########oo######o##",
"        ooo##########oo######o##",
"        %%%######o%%%#####%%%%oo",
"        #############oo#########",
"        #############oo#########",
"        #%%%oo%######%%%%%%%%%%%",
"        ############o########%##",
"        ############o########%##",
"        ###%###%%%##o##%%%%#####",
"        o###########%%%####%%%oo",
"        o###########%%%####%%%oo",
"        #ooooooooooo%%%@XXXooo##",
"        #%%%%%$%%%#####o#####%%%",
"        #%%%%%$%%%#####o#####%%%",
"        ###############%%%######",
"        #########%%%############",
"        #########%%%############"
};
